<mxfile host="app.diagrams.net" agent="Mozilla/5.0 (Windows NT 10.0; WOW64) AppleWebKit/537.36 (KHTML, like Gecko) Chrome/122.0.6261.95 Safari/537.36" version="24.7.7">
  <diagram name="第 1 页" id="wnBJuQTomzGHbZgh-veJ">
    <mxGraphModel dx="1155" dy="636" grid="1" gridSize="10" guides="1" tooltips="1" connect="1" arrows="1" fold="1" page="1" pageScale="1" pageWidth="827" pageHeight="1169" math="0" shadow="0">
      <root>
        <mxCell id="0" />
        <mxCell id="1" parent="0" />
        <mxCell id="gLPbtBqp6f2BqbgWWAIn-1" value="UI" style="rounded=0;whiteSpace=wrap;html=1;" vertex="1" parent="1">
          <mxGeometry x="310" y="190" width="120" height="60" as="geometry" />
        </mxCell>
        <mxCell id="gLPbtBqp6f2BqbgWWAIn-2" value="(跟)树节点" style="rounded=0;whiteSpace=wrap;html=1;" vertex="1" parent="1">
          <mxGeometry x="310" y="320" width="120" height="60" as="geometry" />
        </mxCell>
        <mxCell id="gLPbtBqp6f2BqbgWWAIn-3" value="" style="endArrow=classic;html=1;rounded=0;" edge="1" parent="1" source="gLPbtBqp6f2BqbgWWAIn-1" target="gLPbtBqp6f2BqbgWWAIn-2">
          <mxGeometry width="50" height="50" relative="1" as="geometry">
            <mxPoint x="240" y="320" as="sourcePoint" />
            <mxPoint x="290" y="270" as="targetPoint" />
          </mxGeometry>
        </mxCell>
        <mxCell id="gLPbtBqp6f2BqbgWWAIn-4" value="String数组" style="edgeLabel;html=1;align=center;verticalAlign=middle;resizable=0;points=[];" vertex="1" connectable="0" parent="gLPbtBqp6f2BqbgWWAIn-3">
          <mxGeometry relative="1" as="geometry">
            <mxPoint as="offset" />
          </mxGeometry>
        </mxCell>
        <mxCell id="gLPbtBqp6f2BqbgWWAIn-5" value="(子)树节点" style="rounded=0;whiteSpace=wrap;html=1;" vertex="1" parent="1">
          <mxGeometry x="230" y="410" width="120" height="60" as="geometry" />
        </mxCell>
        <mxCell id="gLPbtBqp6f2BqbgWWAIn-6" value="指令节点" style="rounded=0;whiteSpace=wrap;html=1;" vertex="1" parent="1">
          <mxGeometry x="390" y="410" width="120" height="60" as="geometry" />
        </mxCell>
        <mxCell id="gLPbtBqp6f2BqbgWWAIn-7" value="" style="endArrow=classic;html=1;rounded=0;" edge="1" parent="1" source="gLPbtBqp6f2BqbgWWAIn-5" target="gLPbtBqp6f2BqbgWWAIn-2">
          <mxGeometry width="50" height="50" relative="1" as="geometry">
            <mxPoint x="210" y="400" as="sourcePoint" />
            <mxPoint x="260" y="350" as="targetPoint" />
          </mxGeometry>
        </mxCell>
        <mxCell id="gLPbtBqp6f2BqbgWWAIn-8" value="" style="endArrow=classic;html=1;rounded=0;" edge="1" parent="1" source="gLPbtBqp6f2BqbgWWAIn-6" target="gLPbtBqp6f2BqbgWWAIn-2">
          <mxGeometry width="50" height="50" relative="1" as="geometry">
            <mxPoint x="331" y="430" as="sourcePoint" />
            <mxPoint x="359" y="390" as="targetPoint" />
          </mxGeometry>
        </mxCell>
        <mxCell id="gLPbtBqp6f2BqbgWWAIn-9" value="GMManager" style="rounded=0;whiteSpace=wrap;html=1;" vertex="1" parent="1">
          <mxGeometry x="310" y="100" width="120" height="60" as="geometry" />
        </mxCell>
        <mxCell id="gLPbtBqp6f2BqbgWWAIn-10" value="" style="endArrow=classic;html=1;rounded=0;" edge="1" parent="1" source="gLPbtBqp6f2BqbgWWAIn-9" target="gLPbtBqp6f2BqbgWWAIn-11">
          <mxGeometry width="50" height="50" relative="1" as="geometry">
            <mxPoint x="560" y="140" as="sourcePoint" />
            <mxPoint x="550" y="120" as="targetPoint" />
          </mxGeometry>
        </mxCell>
        <mxCell id="gLPbtBqp6f2BqbgWWAIn-11" value="建树(反射)" style="ellipse;whiteSpace=wrap;html=1;" vertex="1" parent="1">
          <mxGeometry x="510" y="90" width="120" height="80" as="geometry" />
        </mxCell>
        <mxCell id="gLPbtBqp6f2BqbgWWAIn-12" value="&lt;span style=&quot;font-size: 11px; text-wrap: nowrap; background-color: rgb(255, 255, 255);&quot;&gt;根据下一元素查找子节点&lt;/span&gt;" style="rounded=1;whiteSpace=wrap;html=1;" vertex="1" parent="1">
          <mxGeometry x="225" y="525" width="130" height="60" as="geometry" />
        </mxCell>
        <mxCell id="gLPbtBqp6f2BqbgWWAIn-13" value="" style="endArrow=classic;html=1;rounded=0;" edge="1" parent="1" source="gLPbtBqp6f2BqbgWWAIn-12" target="gLPbtBqp6f2BqbgWWAIn-5">
          <mxGeometry width="50" height="50" relative="1" as="geometry">
            <mxPoint x="150" y="550" as="sourcePoint" />
            <mxPoint x="200" y="500" as="targetPoint" />
          </mxGeometry>
        </mxCell>
        <mxCell id="gLPbtBqp6f2BqbgWWAIn-15" value="&lt;span style=&quot;font-size: 11px; text-wrap: nowrap; background-color: rgb(255, 255, 255);&quot;&gt;根据剩余元素完成命令&lt;/span&gt;" style="rounded=1;whiteSpace=wrap;html=1;" vertex="1" parent="1">
          <mxGeometry x="385" y="525" width="130" height="60" as="geometry" />
        </mxCell>
        <mxCell id="gLPbtBqp6f2BqbgWWAIn-16" value="" style="endArrow=classic;html=1;rounded=0;" edge="1" parent="1" source="gLPbtBqp6f2BqbgWWAIn-15" target="gLPbtBqp6f2BqbgWWAIn-6">
          <mxGeometry width="50" height="50" relative="1" as="geometry">
            <mxPoint x="300" y="535" as="sourcePoint" />
            <mxPoint x="300" y="480" as="targetPoint" />
          </mxGeometry>
        </mxCell>
      </root>
    </mxGraphModel>
  </diagram>
</mxfile>
